# xmcd
#
# Track frame offsets: 
#        150
#        13524
#        33748
#        48253
#        62856
#        82400
#        109288
#        121752
#        148042
#        171155
#        187504
#        201339
#        216736
#        231498
#        252728
#        274336
#
# Disc length: 3912 seconds
#
# Revision: 0
# Processed by: cddbd v1.5.2PL0 Copyright (c) Steve Scherf et al.
# Submitted via: ExactAudioCopy v0.95b4
#
DISCID=fe0f4610
DTITLE=Various Artist - Whatever Colors You Have In Mind
DYEAR=2007
DGENRE=Country
TTITLE0=Blowing in the wind - Augie Meyers
TTITLE1=Tonight I'll be staying here with you - Rosie Flores
TTITLE2=Forever Young - Steve Haggard
TTITLE3=Rainy Day Women - Totta Näslund
TTITLE4=When I paint my masterpiece - Monica Törnell
TTITLE5=Like a rolling stone - Steve Gibbons
TTITLE6=You ain´t going nowhere - Billy Bremner
TTITLE7=Mr Tambourine Man - Mike Watson
TTITLE8=It's all over now baby blue - Them
TTITLE9=It ain't me babe - Linda Gail Lewis
TTITLE10=Don´t think twice - Bobby Cochran
TTITLE11=To be alone with you - Chris Jagger
TTITLE12=If you gotta go - Mike Berry
TTITLE13=I shall be released - The Animals
TTITLE14=Knocking on heavens door - Magnus Linberg and Eric Bell
TTITLE15=Highway 61 revisited - Downliners Sect
EXTD=
EXTT0=
EXTT1=
EXTT2=
EXTT3=
EXTT4=
EXTT5=
EXTT6=
EXTT7=
EXTT8=
EXTT9=
EXTT10=
EXTT11=
EXTT12=
EXTT13=
EXTT14=
EXTT15=
PLAYORDER=
